<svg xmlns="http://www.w3.org/2000/svg" viewBox="0 0 368.19 113.8"><defs><style>.cls-1{fill:#f72a16;}.cls-2{fill:#fabc22;}.cls-3{fill:#06c92e;}.cls-4{fill:#00c2fc;}.cls-5{fill:#0073e6;}</style></defs><title>DM_logo_3_RGB</title><g id="Layer_2" data-name="Layer 2"><g id="Layer_1-2" data-name="Layer 1"><g id="DM_logo_3_RGB"><path class="cls-1" d="M132.41,26.84a69.64,69.64,0,0,0-3.27-12h0a69.11,69.11,0,0,0-5.21-11.34A7,7,0,0,0,116.55.14a83.35,83.35,0,0,0-12,3.45,83.92,83.92,0,0,0-11.38,5,7,7,0,0,0-3.54,7.27,68.53,68.53,0,0,0,3.26,12.05,70,70,0,0,0,5.21,11.34,7,7,0,0,0,7.39,3.31,83.25,83.25,0,0,0,11.93-3.45,82.91,82.91,0,0,0,11.39-5A7,7,0,0,0,132.41,26.84Z"/><path class="cls-2" d="M177.14,7.28a85.54,85.54,0,0,0-11.73-4.13A84.34,84.34,0,0,0,153.25.61a7,7,0,0,0-7.11,3.86,67.8,67.8,0,0,0-4.34,11.7,67.43,67.43,0,0,0-2.35,12.26,7,7,0,0,0,4.08,7,84.69,84.69,0,0,0,11.72,4.12,83.63,83.63,0,0,0,12.17,2.55,7,7,0,0,0,7.12-3.86,69.53,69.53,0,0,0,4.34-11.7h0a69.23,69.23,0,0,0,2.35-12.26A7,7,0,0,0,177.14,7.28Z"/><path class="cls-3" d="M230.62,26.84a67.85,67.85,0,0,0-3.27-12h0a68.28,68.28,0,0,0-5.21-11.34A6.94,6.94,0,0,0,214.76.14a83.3,83.3,0,0,0-11.94,3.45,83.92,83.92,0,0,0-11.38,5,7,7,0,0,0-3.55,7.27,68.74,68.74,0,0,0,3.27,12.05,68.28,68.28,0,0,0,5.21,11.34,6.94,6.94,0,0,0,7.38,3.31,83.3,83.3,0,0,0,11.94-3.45,82.67,82.67,0,0,0,11.38-5A7,7,0,0,0,230.62,26.84Z"/><path class="cls-4" d="M275.36,7.28a86,86,0,0,0-11.73-4.13A84.14,84.14,0,0,0,251.46.61a7,7,0,0,0-7.11,3.86A68.65,68.65,0,0,0,240,16.17a69.23,69.23,0,0,0-2.35,12.26,7,7,0,0,0,4.09,7,83.73,83.73,0,0,0,11.72,4.12,83.36,83.36,0,0,0,12.17,2.55,7,7,0,0,0,7.11-3.86,67.8,67.8,0,0,0,4.34-11.7h0a69.23,69.23,0,0,0,2.35-12.26A7,7,0,0,0,275.36,7.28Z"/><path class="cls-5" d="M9.18,104.75a2.46,2.46,0,0,1-2.49,2.49H2.49a2.41,2.41,0,0,1-1.77-.72A2.41,2.41,0,0,1,0,104.75V94a2.41,2.41,0,0,1,.72-1.77,2.41,2.41,0,0,1,1.77-.72H3.81a12.2,12.2,0,0,0,1.5-2.69,23.67,23.67,0,0,0,1.12-3.45,37.87,37.87,0,0,0,.75-3.87c.2-1.33.34-2.66.43-4l.26-3.87a2.63,2.63,0,0,1,.82-1.77,2.55,2.55,0,0,1,1.81-.72H28.93a2.41,2.41,0,0,1,1.77.72,2.38,2.38,0,0,1,.73,1.77V91.5h2.42a2.41,2.41,0,0,1,1.77.72A2.38,2.38,0,0,1,36.35,94v10.76a2.38,2.38,0,0,1-.73,1.77,2.41,2.41,0,0,1-1.77.72h-4.2a2.46,2.46,0,0,1-2.49-2.49v-4.07h-18Zm12.4-24.41H17.19l-.13,1.18a33.6,33.6,0,0,1-1.25,6.17,15.68,15.68,0,0,1-1.7,3.81h7.47Z"/><path class="cls-5" d="M49.14,89.2a5.24,5.24,0,0,0,2.59,3.08,9.06,9.06,0,0,0,4.3,1,19,19,0,0,0,2.89-.2,11.26,11.26,0,0,0,2.42-.66,4.31,4.31,0,0,1,1.45-.26,2.4,2.4,0,0,1,2.29,1.38l1,2.1a2.53,2.53,0,0,1,.26,1.18A2.39,2.39,0,0,1,65.21,99,17.82,17.82,0,0,1,60,101a26.93,26.93,0,0,1-5.05.46,18.52,18.52,0,0,1-6.63-1.12,13.76,13.76,0,0,1-8.23-8.07A16.94,16.94,0,0,1,39,85.92a15.8,15.8,0,0,1,1.15-6,15.37,15.37,0,0,1,3.21-4.95,14.69,14.69,0,0,1,5-3.35A17.48,17.48,0,0,1,55,70.37a15.25,15.25,0,0,1,5.41,1A13.73,13.73,0,0,1,65,74.18a14,14,0,0,1,3.15,4.39,13.44,13.44,0,0,1,1.18,5.71,17.42,17.42,0,0,1-.2,3,2.39,2.39,0,0,1-.82,1.35,2.12,2.12,0,0,1-1.41.62Zm10.3-6.56a4,4,0,0,0-1.21-2.79,4.71,4.71,0,0,0-3.58-1.28,6,6,0,0,0-3.8,1.05,6.68,6.68,0,0,0-2,3Z"/><path class="cls-5" d="M82.93,100.68a2.41,2.41,0,0,1-1.77-.72,2.38,2.38,0,0,1-.73-1.77V81h-6a2.41,2.41,0,0,1-1.77-.72,2.37,2.37,0,0,1-.72-1.77V73.65a2.37,2.37,0,0,1,.72-1.77,2.41,2.41,0,0,1,1.77-.72H96.31a2.46,2.46,0,0,1,2.49,2.49v4.86A2.46,2.46,0,0,1,96.31,81h-6V98.19a2.48,2.48,0,0,1-2.5,2.49Z"/><path class="cls-5" d="M122.69,80.74a10.13,10.13,0,0,0-4.53-1.18,7,7,0,0,0-2.3.39,6.12,6.12,0,0,0-2,1.21,6.32,6.32,0,0,0-1.48,2,6.44,6.44,0,0,0-.56,2.76,5.85,5.85,0,0,0,.6,2.69A6.44,6.44,0,0,0,116,91.86a6.75,6.75,0,0,0,2.33.42,8.58,8.58,0,0,0,4.59-1.44,3.19,3.19,0,0,1,1.84-.59,2.42,2.42,0,0,1,2,1l2,2.69a2.62,2.62,0,0,1,.52,1.57,2.48,2.48,0,0,1-1.05,2.1,16,16,0,0,1-5.57,3.09,18.91,18.91,0,0,1-5,.72,19.5,19.5,0,0,1-6.79-1.12,14.53,14.53,0,0,1-5.18-3.15,13.42,13.42,0,0,1-3.28-4.92,16.94,16.94,0,0,1-1.15-6.36,16.37,16.37,0,0,1,1.11-6,15.12,15.12,0,0,1,3.18-4.95,14.83,14.83,0,0,1,5-3.35,16.38,16.38,0,0,1,6.36-1.21,24.64,24.64,0,0,1,5.32.53,15.38,15.38,0,0,1,5,2.23,2.68,2.68,0,0,1,1.45,2.29,2.26,2.26,0,0,1-.4,1.25l-1.9,3.15a2.48,2.48,0,0,1-2.23,1.31A2.73,2.73,0,0,1,122.69,80.74Z"/><path class="cls-5" d="M144.73,86.58V98.19a2.46,2.46,0,0,1-2.49,2.49h-4.86a2.46,2.46,0,0,1-2.49-2.49V73.65a2.46,2.46,0,0,1,2.49-2.49h4.86a2.46,2.46,0,0,1,2.49,2.49V84l7.61-11.22a4.06,4.06,0,0,1,1.35-1.18,3.42,3.42,0,0,1,1.73-.46H160a2.38,2.38,0,0,1,1.83.78,2.48,2.48,0,0,1,.2,3.29l-7,9.18,3.21,4.4a7,7,0,0,0,3.54,2.82,3.36,3.36,0,0,1,2,1,3.75,3.75,0,0,1,.49,2.17v4a2.12,2.12,0,0,1-.59,1.44,2.39,2.39,0,0,1-1.38.79c-.35,0-.68.08-1,.1s-.63,0-1,0a12.56,12.56,0,0,1-2.46-.26,9.51,9.51,0,0,1-2.56-.95A11.93,11.93,0,0,1,152.83,98a20.34,20.34,0,0,1-2.59-3.21Z"/><path class="cls-5" d="M192.75,100.68a2.46,2.46,0,0,1-2.49-2.49V85.26L180.88,99a4.67,4.67,0,0,1-1.21,1.18,2.82,2.82,0,0,1-1.61.46h-5.64a2.44,2.44,0,0,1-1.78-.72,2.41,2.41,0,0,1-.72-1.77V73.65a2.41,2.41,0,0,1,.72-1.77,2.44,2.44,0,0,1,1.78-.72h4.85a2.46,2.46,0,0,1,2.49,2.49V86.58l9.39-13.78a4.89,4.89,0,0,1,1.18-1.18,2.62,2.62,0,0,1,1.57-.46h5.71a2.46,2.46,0,0,1,2.49,2.49V98.19a2.46,2.46,0,0,1-2.49,2.49Z"/><path class="cls-5" d="M230.15,100.68a2.46,2.46,0,0,1-2.49-2.49V85.26L218.28,99a4.7,4.7,0,0,1-1.22,1.18,2.78,2.78,0,0,1-1.6.46h-5.65a2.46,2.46,0,0,1-2.49-2.49V73.65a2.46,2.46,0,0,1,2.49-2.49h4.86a2.46,2.46,0,0,1,2.49,2.49V86.58l9.38-13.78a5.08,5.08,0,0,1,1.18-1.18,2.68,2.68,0,0,1,1.58-.46H235a2.46,2.46,0,0,1,2.49,2.49V98.19a2.46,2.46,0,0,1-2.49,2.49Zm-1.44-42.45a3.85,3.85,0,0,1,3,1.12,4.09,4.09,0,0,1,1,2.88,5.19,5.19,0,0,1-2.53,4.34q-2.52,1.77-7.51,1.77c-3.67,0-6.31-.59-7.9-1.77a5.26,5.26,0,0,1-2.4-4.34,4.16,4.16,0,0,1,1-2.88,4.59,4.59,0,0,1,5.44-.42,3.83,3.83,0,0,1,1.12,1.79,3.8,3.8,0,0,0,.92,1.47,2.54,2.54,0,0,0,1.83.57,2.13,2.13,0,0,0,1.64-.57,4.56,4.56,0,0,0,.86-1.47,3.81,3.81,0,0,1,1.11-1.79A3.61,3.61,0,0,1,228.71,58.23Z"/><path class="cls-5" d="M267.68,98.19A2.41,2.41,0,0,1,267,100a2.44,2.44,0,0,1-1.78.72h-4.85a2.46,2.46,0,0,1-2.49-2.49V73.65a2.46,2.46,0,0,1,2.49-2.49H265a3.91,3.91,0,0,1,3,1.51l7.54,8.53,7-8.47a5,5,0,0,1,1.31-1.15,3.2,3.2,0,0,1,1.64-.42h4.39a2.41,2.41,0,0,1,1.77.72,2.38,2.38,0,0,1,.73,1.77V98.19a2.38,2.38,0,0,1-.73,1.77,2.41,2.41,0,0,1-1.77.72H285a2.46,2.46,0,0,1-2.49-2.49v-12l-5.58,6.3a2.23,2.23,0,0,1-1.71.79,2.33,2.33,0,0,1-1.7-.72l-5.84-6.37Z"/><path class="cls-5" d="M322.39,100.68a2.46,2.46,0,0,1-2.49-2.49V85.26L310.52,99a4.83,4.83,0,0,1-1.21,1.18,2.82,2.82,0,0,1-1.61.46h-5.64a2.46,2.46,0,0,1-2.5-2.49V73.65a2.46,2.46,0,0,1,2.5-2.49h4.85a2.46,2.46,0,0,1,2.49,2.49V86.58l9.39-13.78A4.89,4.89,0,0,1,320,71.62a2.62,2.62,0,0,1,1.57-.46h5.71a2.46,2.46,0,0,1,2.49,2.49V98.19a2.46,2.46,0,0,1-2.49,2.49Z"/><path class="cls-5" d="M346.8,111.31a2.46,2.46,0,0,1-2.49,2.49h-4.86a2.46,2.46,0,0,1-2.49-2.49V73.65a2.46,2.46,0,0,1,2.49-2.49h5.18a2.12,2.12,0,0,1,2.17,2.16,11.1,11.1,0,0,1,3.35-2.06,12.38,12.38,0,0,1,4.85-.89,12.84,12.84,0,0,1,5.41,1.12,11.67,11.67,0,0,1,4.17,3.14,15.16,15.16,0,0,1,2.66,4.79,18.52,18.52,0,0,1,.95,6A17.12,17.12,0,0,1,367,91.73a15.55,15.55,0,0,1-3.22,5.08,14.86,14.86,0,0,1-5,3.41,16.49,16.49,0,0,1-6.53,1.25,19.64,19.64,0,0,1-3-.23,9.94,9.94,0,0,1-2.53-.69Zm0-20.14a7.41,7.41,0,0,0,2.07.88,10.69,10.69,0,0,0,2.52.23,5.73,5.73,0,0,0,4.76-1.93,7.29,7.29,0,0,0,1.54-4.69,6.5,6.5,0,0,0-1.48-4.33,5.26,5.26,0,0,0-4.29-1.77,6.84,6.84,0,0,0-5.12,2.62Z"/></g></g></g></svg>