<?xml version="1.0" encoding="utf-8"?>
<!-- Generator: Adobe Illustrator 21.1.0, SVG Export Plug-In . SVG Version: 6.00 Build 0)  -->
<svg version="1.1" id="OBJECTS" xmlns="http://www.w3.org/2000/svg" xmlns:xlink="http://www.w3.org/1999/xlink" x="0px" y="0px"
	 viewBox="0 0 371.8 357.4" style="enable-background:new 0 0 371.8 357.4;" xml:space="preserve">
<style type="text/css">
	.st0{fill:#262C38;}
	.st1{fill:#7D0C1D;}
	.st2{fill:#C92137;}
	.st3{fill:url(#SVGID_1_);}
	.st4{fill:url(#SVGID_2_);}
</style>
<polygon class="st0" points="0.3,-0.5 372.1,-0.3 372.3,209.5 209.1,320.7 183.1,308.7 156.1,265.7 121.1,256.7 0.3,318.5 "/>
<polygon class="st1" points="144.3,273.9 173.8,325 219.8,335.4 177.7,256.1 "/>
<polygon class="st2" points="18.3,358 -0.7,358 0.3,318.5 113.6,241.5 177.7,256.1 "/>
<linearGradient id="SVGID_1_" gradientUnits="userSpaceOnUse" x1="635.8661" y1="96.9413" x2="777.1503" y2="96.9413" gradientTransform="matrix(0.2764 -1.2155 1.1175 0.2542 -26.2572 1092.3345)">
	<stop  offset="0" style="stop-color:#C92137"/>
	<stop  offset="1" style="stop-color:#262C38"/>
</linearGradient>
<polygon class="st3" points="219.8,335.4 371.8,232 372.3,189.5 173.8,324.8 "/>
<linearGradient id="SVGID_2_" gradientUnits="userSpaceOnUse" x1="558.5097" y1="-541.0683" x2="701.927" y2="-541.0683" gradientTransform="matrix(-0.2764 1.2155 -1.1175 -0.2542 -142.5983 -696.1018)">
	<stop  offset="0" style="stop-color:#C92137"/>
	<stop  offset="1" style="stop-color:#262C38;stop-opacity:0"/>
</linearGradient>
<polygon class="st4" points="372.3,135 200.4,253 217.8,283.2 371.8,177.5 "/>
</svg>
