<svg id="Layer_1" data-name="Layer 1" xmlns="http://www.w3.org/2000/svg" xmlns:xlink="http://www.w3.org/1999/xlink" viewBox="0 0 72 22.08"><defs><style>.cls-1{fill:#fff;}.cls-1,.cls-2,.cls-3,.cls-4,.cls-5{fill-rule:evenodd;}.cls-2{fill:#cbcbff;}.cls-3{fill:#acacc1;}.cls-4{fill:#b2b2df;}.cls-5{fill:url(#GradientFill_1);}</style><radialGradient id="GradientFill_1" cx="12.98" cy="11.26" r="7.13" gradientTransform="matrix(0.99, 0.17, -0.16, 0.91, 1.93, -1.19)" gradientUnits="userSpaceOnUse"><stop offset="0" stop-color="#fff"/><stop offset="1" stop-color="#b9bcdf"/></radialGradient></defs><title>p4p-logo</title><path class="cls-1" d="M61.43,15.25a1.84,1.84,0,1,1,0-3.67l2.78,0a4.66,4.66,0,0,0,3-1,2.79,2.79,0,0,0,1.07-2.11,2.79,2.79,0,0,0-1.07-2.11,4.66,4.66,0,0,0-3-1h-5.7v3a2.61,2.61,0,0,0-3.68,0V3.49A1.84,1.84,0,0,1,56.7,1.65h7.54a8.35,8.35,0,0,1,5.36,1.9A6.41,6.41,0,0,1,72,8.46a6.41,6.41,0,0,1-2.39,4.92,8.35,8.35,0,0,1-5.36,1.9Z"/><path class="cls-1" d="M32.33,15.79a1.84,1.84,0,0,1,0-3.67l2.78,0h0a4.66,4.66,0,0,0,3-1A2.79,2.79,0,0,0,39.21,9,2.79,2.79,0,0,0,38.14,6.9a4.66,4.66,0,0,0-3-1h-5.7V8.32a2.61,2.61,0,0,0-3.68,0V4A1.84,1.84,0,0,1,27.6,2.19h7.54a8.35,8.35,0,0,1,5.36,1.9A6.41,6.41,0,0,1,42.89,9c-.84,4.41-2.73,6.81-7.76,6.81h0Z"/><path class="cls-2" d="M45.9,12.11h6a1.84,1.84,0,1,1,0,3.68H42.66l.12-.13Z"/><path class="cls-2" d="M42.21,15.17a1.84,1.84,0,0,1-2.76-2.42L49,1.87a1.84,1.84,0,0,1,2.76,2.42Z"/><polygon class="cls-3" points="19.22 10.27 8.53 1.83 12.51 10.27 19.22 10.27"/><path class="cls-1" d="M25.76,10.17a1.84,1.84,0,0,1,3.68,0v7.71a1.84,1.84,0,1,1-3.68,0Z"/><path class="cls-2" d="M54.86,10.17a1.84,1.84,0,1,1,3.68,0v7.71a1.84,1.84,0,1,1-3.68,0Z"/><path class="cls-2" d="M19.88,11H12.79V16.7L15.64,18a1,1,0,0,0,1.18-.3l3.84-5A1,1,0,0,0,19.88,11ZM6.44,11H4.66a1,1,0,0,0-.4,1.88l2.18,1Z"/><path class="cls-4" d="M12,21.92V11L7.24,21.34a10.92,10.92,0,0,0,3.7.64Q11.5,22,12,21.92Z"/><path class="cls-1" d="M10.94.1a10.94,10.94,0,0,1,1.87,21.71V17.53l2.53,1.12a1.75,1.75,0,0,0,2.1-.54l3.84-5a1.73,1.73,0,0,0,.18-1.84,1.8,1.8,0,0,0-.2-.31l0,0h0a1.71,1.71,0,0,0-.4-.35l-.09-.05L8.06.49A10.94,10.94,0,0,1,10.94.1ZM6.46,21a10.94,10.94,0,0,1,0-19.94l0,9.19H4.66a1.75,1.75,0,0,0-.71,3.35l2.5,1.1Z"/><polygon class="cls-5" points="11.6 10.14 7.18 0.77 7.22 19.55 11.6 10.14"/></svg>