<?xml version="1.0" encoding="utf-8"?>
<!-- Generator: Adobe Illustrator 21.1.0, SVG Export Plug-In . SVG Version: 6.00 Build 0)  -->
<svg version="1.1" id="Layer_1" xmlns="http://www.w3.org/2000/svg" xmlns:xlink="http://www.w3.org/1999/xlink" x="0px" y="0px"
	 viewBox="0 0 266.8 134.7" style="enable-background:new 0 0 266.8 134.7;" xml:space="preserve">
<style type="text/css">
	.st0{fill:#1C1C1A;}
	.st1{fill:url(#SVGID_1_);}
	.st2{fill:#FFFFFF;stroke:#000000;stroke-width:8.000000e-02;stroke-miterlimit:22.9256;}
</style>
<polygon class="st0" points="209,134.7 0.2,134.7 0.2,0 266.8,0 "/>
<linearGradient id="SVGID_1_" gradientUnits="userSpaceOnUse" x1="243.9334" y1="148.9903" x2="60.2934" y2="53.5303" gradientTransform="matrix(0.9988 0 0 -0.9988 3.537953e-03 211.2694)">
	<stop  offset="0" style="stop-color:#393937"/>
	<stop  offset="1" style="stop-color:#1C1C1A"/>
</linearGradient>
<polygon class="st1" points="209,134.7 0.2,134.7 266.8,0 "/>
<path class="st2" d="M135.2,95.9l2.1,3.3l-3.1,7l-11.3-18h9.5h3.6l-3.2-0.9l4.2-9.3l4.1-1.1c-8.4,0-16.8,0-25.1,0l2.9-6.5h28.7
	l-10.9,24.4h-5.7L135.2,95.9L135.2,95.9z M171.2,87.1l-4.8,12h7.2l11.8-28.8h-8.9l-19.6,19.2l2.3-4.1l-2-15.1h-7.2l-12.8,28.8h7.2
	l7.7-17.2l2.8,17.2l18.2-17.2l2.6-2.5L171.2,87.1z M97.1,70.4L84.3,99.2H113l6.9-15.6l-4.2-6.7l-7,15.8l3.2,0.9h-3.6H94l7-15.8
	l-3.2-0.9h3.6h14.4l-4.1-6.5H97.1z M91.8,76.9H61.3l2.9-6.5h30.5L91.8,76.9z M80.7,88.2L77,82.3h-7l2.4-5.4l-8.1,2.2l-8.9,20.1h7.2
	l4.5-10.1l-3.2-0.9h3.6C67.3,88.2,80.7,88.2,80.7,88.2z M193.8,46.2l4.1-1.1h-3.6h-14.4l-10.3,23.2h-7.2l9.3-21l1-2.2h-2.5l2.9-6.5
	h31.2l-10.9,24.4h-5.7l4.3,1.1l2.1,3.3l-3.1,7l-11.3-18c4.3,0,8.7,0,13,0l-3.2-0.9L193.8,46.2L193.8,46.2z M148,38.6l-13.2,29.7
	h24.9l2.9-6.5h-17.8l2-4.5l-3.2-0.9h3.6H160l-3.7-6h-6.4l2-4.5l-3.2-0.9h3.6h15.3l2.9-6.5C170.5,38.6,148,38.6,148,38.6z
	 M130.6,55.5l4.2-9.3l4.1-1.1h-3.6h-22.6h-1.4h-6L93.6,56.4h9.4l3.3,5.4l6.4-14.5l8.1-2.2l-10.3,23.2h-7.2l2.9-6.5H89.1l1.5-2.5
	c-3.1,3-6.2,6-9.3,9h-9.4l5.5-5.4h-17h-3.6l3.2,0.8l-2,4.5h-7.2l5.3-11.9h19.1h3.6l-3.2-0.9l4.2-9.3l4.1-1.1h-3.6H59.7l-4.1-6.5
	h34.7l-9.3,20.8l21.6-20.8h10.1v3.3l1.5-3.3h31.2l-10.9,24.4h-14.6l-4.1-6.5h14.4h3.6L130.6,55.5L130.6,55.5z"/>
</svg>
