<svg id="Layer_1" data-name="Layer 1" xmlns="http://www.w3.org/2000/svg" viewBox="0 0 459.01 202.39"><defs><style>.cls-1{fill:#fff;fill-rule:evenodd;}</style></defs><title>PAPERFORM_logo2</title><path class="cls-1" d="M239.08,50.81l12.45-28,12.15-3.26H163.33l-35,33.78h28l10,16L185.64,26.1l24.31-6.51L179.07,88.93H157.66l8.71-19.56H115l4.47-7.44-28,27H63.37l16.57-16H18.36l9.56,2.56-6,13.44H.53L16.36,53.37H84.17l-9.56-2.56,12.45-28,12.15-3.26H27L14.73,0H118.62L90.86,62.38,155.43,0h30.1V9.81L189.88,0H283.1l-32.46,72.9H207.13L194.91,53.37h53.74ZM291.1,0l-39.58,88.9H326.1l8.71-19.56H281.64l6-13.44-9.56-2.56H327L315.85,35.59H296.68l6-13.44-9.56-2.56h56.51L358.32,0ZM428,22.84l12.15-3.26H386.39L355.51,88.93H334.1L362,26.16,365,19.59h-7.36L366.32,0h93.21l-32.46,72.9h-17l12.86,3.45,6.2,9.93-9.35,21-33.7-53.93h39l-9.56-2.56ZM89.75,148.5,78.64,130.72h-21l7.12-16L40.5,121.23l-26.72,60H35.19l13.43-30.17-9.56-2.56H89.75ZM123,114.71H31.84l8.71-19.56h91.13Zm16-19.56-38.32,86.08H186.5l20.71-46.51-12.5-20-21,47.22,9.56,2.56H129.51l21-47.22L141,114.71H194.7L182.48,95.15Zm221.45,50.18-14.25,35.89h21.41L403,95.15H376.32l-58.66,57.31,7-12.19-6-45.12H297.27l-38.32,86.08h21.41l23-51.59,8.5,51.59,54.44-51.59,7.66-7.48ZM252.65,171.5l6.2,9.93-9.35,21-33.7-53.93h39l-9.56-2.56,12.45-28,12.15-3.26H194.7l8.71-19.56h85.85l-32.46,72.9h-17Z" transform="translate(-0.53 -0.03)"/></svg>