<?xml version="1.0" encoding="UTF-8"?>
<!DOCTYPE svg PUBLIC "-//W3C//DTD SVG 1.1//EN" "http://www.w3.org/Graphics/SVG/1.1/DTD/svg11.dtd">
<!-- Creator: CorelDRAW 2018 -->
<svg xmlns="http://www.w3.org/2000/svg" xml:space="preserve" width="75mm" height="105mm" version="1.1" style="shape-rendering:geometricPrecision; text-rendering:geometricPrecision; image-rendering:optimizeQuality; fill-rule:evenodd; clip-rule:evenodd"
viewBox="0 0 2812.5 3937.5"
 xmlns:xlink="http://www.w3.org/1999/xlink">
 <defs>
  <style type="text/css">
   <![CDATA[
    .fil6 {fill:none}
    .fil0 {fill:black}
    .fil3 {fill:#6B6B6B}
    .fil1 {fill:#713B0C}
    .fil4 {fill:#909090}
    .fil2 {fill:#B96700}
    .fil5 {fill:white}
   ]]>
  </style>
 </defs>
 <g id="Layer_x0020_1">
  <metadata id="CorelCorpID_0Corel-Layer"/>
  <path class="fil0" d="M187.5 1125l750 0 0 -187.5 -562.5 0 0 -375 375 0 0 -187.5 -562.5 0c0,250 0,500 0,750z"/>
  <rect class="fil0" x="750" y="187.5" width="1125" height="187.5"/>
  <rect class="fil0" x="937.5" y="1125" width="750" height="187.5"/>
  <rect class="fil0" transform="matrix(2.1407E-14 -2.82899 0.652358 6.04709E-14 1500 3750)" width="927.89" height="287.42"/>
  <rect class="fil0" transform="matrix(2.1407E-14 -2.82899 0.652358 6.04709E-14 937.499 3750)" width="927.89" height="287.42"/>
  <rect class="fil1" transform="matrix(2.1407E-14 -2.42485 0.652358 5.18322E-14 1312.5 3562.5)" width="927.89" height="287.42"/>
  <rect class="fil2" transform="matrix(2.1407E-14 -2.42485 0.652358 5.18322E-14 1125 3562.5)" width="927.89" height="287.42"/>
  <rect class="fil0" x="937.5" y="3562.5" width="750" height="187.5"/>
  <rect class="fil0" x="1687.5" y="937.5" width="187.5" height="187.5"/>
  <rect class="fil0" x="1875" y="750" width="375" height="187.5"/>
  <rect class="fil0" x="1875" y="375" width="375" height="187.5"/>
  <rect class="fil0" x="2250" y="562.5" width="187.5" height="187.5"/>
  <polygon class="fil0" points="2625,750 2437.5,750 2437.5,937.5 2250,937.5 2250,1125 2625,1125 "/>
  <rect class="fil3" x="2250" y="750" width="187.5" height="187.5"/>
  <rect class="fil3" x="1875" y="562.5" width="375" height="187.5"/>
  <rect class="fil3" x="750" y="375" width="1125" height="187.5"/>
  <rect class="fil4" x="562.5" y="562.5" width="1312.5" height="187.5"/>
  <rect class="fil4" x="750" y="750" width="1125" height="187.5"/>
  <polygon class="fil5" points="562.5,562.5 375,562.5 375,937.5 750,937.5 750,750 562.5,750 "/>
  <rect class="fil5" x="937.5" y="937.5" width="750" height="187.5"/>
  <rect class="fil6" width="2812.5" height="3937.5"/>
 </g>
</svg>
